<mxfile host="Electron" modified="2020-10-31T14:24:46.420Z" agent="5.0 (Macintosh; Intel Mac OS X 10_15_7) AppleWebKit/537.36 (KHTML, like Gecko) draw.io/13.7.9 Chrome/85.0.4183.121 Electron/10.1.3 Safari/537.36" etag="cQtftTPbJZZICcU0_XMG" version="13.7.9" type="device">
  <diagram id="l1xl0v1_wxaMsd1O183A" name="UML">
    <mxGraphModel dx="1201" dy="309" grid="1" gridSize="10" guides="1" tooltips="1" connect="1" arrows="1" fold="1" page="1" pageScale="1" pageWidth="827" pageHeight="1169" math="0" shadow="0">
      <root>
        <mxCell id="0" />
        <mxCell id="1" parent="0" />
        <mxCell id="jRbRf-JTC5As9jBnpH00-10" value="Model.swift" style="rounded=1;whiteSpace=wrap;html=1;fillColor=none;dashed=1;strokeWidth=3;labelPosition=center;verticalLabelPosition=top;align=center;verticalAlign=bottom;strokeColor=#3399FF;fontColor=#3399FF;" vertex="1" parent="1">
          <mxGeometry x="270" y="330" width="260" height="160" as="geometry" />
        </mxCell>
        <mxCell id="jRbRf-JTC5As9jBnpH00-24" value="SideMenuView.swift" style="rounded=1;whiteSpace=wrap;html=1;fillColor=none;dashed=1;strokeWidth=3;labelPosition=center;verticalLabelPosition=top;align=center;verticalAlign=bottom;strokeColor=#3399FF;fontColor=#3399FF;" vertex="1" parent="1">
          <mxGeometry x="640" y="256" width="240" height="320" as="geometry" />
        </mxCell>
        <mxCell id="jRbRf-JTC5As9jBnpH00-15" value="ArtcleDataStructures.swift" style="rounded=1;whiteSpace=wrap;html=1;fillColor=none;dashed=1;strokeWidth=3;labelPosition=center;verticalLabelPosition=top;align=center;verticalAlign=bottom;strokeColor=#3399FF;fontColor=#3399FF;" vertex="1" parent="1">
          <mxGeometry x="-150" y="150" width="290" height="580" as="geometry" />
        </mxCell>
        <mxCell id="jRbRf-JTC5As9jBnpH00-16" value="«struct»&#xa;MenuContent" style="swimlane;fontStyle=1;align=center;verticalAlign=top;childLayout=stackLayout;horizontal=1;startSize=40;horizontalStack=0;resizeParent=1;resizeParentMax=0;resizeLast=0;collapsible=1;marginBottom=0;strokeColor=#000000;strokeWidth=1;fillColor=none;fontColor=#000000;" vertex="1" parent="1">
          <mxGeometry x="680" y="290" width="160" height="100" as="geometry" />
        </mxCell>
        <mxCell id="jRbRf-JTC5As9jBnpH00-17" value="+ field: type" style="text;strokeColor=none;fillColor=none;align=left;verticalAlign=top;spacingLeft=4;spacingRight=4;overflow=hidden;rotatable=0;points=[[0,0.5],[1,0.5]];portConstraint=eastwest;" vertex="1" parent="jRbRf-JTC5As9jBnpH00-16">
          <mxGeometry y="40" width="160" height="26" as="geometry" />
        </mxCell>
        <mxCell id="jRbRf-JTC5As9jBnpH00-18" value="" style="line;strokeWidth=1;fillColor=none;align=left;verticalAlign=middle;spacingTop=-1;spacingLeft=3;spacingRight=3;rotatable=0;labelPosition=right;points=[];portConstraint=eastwest;" vertex="1" parent="jRbRf-JTC5As9jBnpH00-16">
          <mxGeometry y="66" width="160" height="8" as="geometry" />
        </mxCell>
        <mxCell id="jRbRf-JTC5As9jBnpH00-19" value="+ method(type): type" style="text;strokeColor=none;fillColor=none;align=left;verticalAlign=top;spacingLeft=4;spacingRight=4;overflow=hidden;rotatable=0;points=[[0,0.5],[1,0.5]];portConstraint=eastwest;" vertex="1" parent="jRbRf-JTC5As9jBnpH00-16">
          <mxGeometry y="74" width="160" height="26" as="geometry" />
        </mxCell>
        <mxCell id="jRbRf-JTC5As9jBnpH00-25" value="«struct»&#xa;SideMenuView" style="swimlane;fontStyle=1;align=center;verticalAlign=top;childLayout=stackLayout;horizontal=1;startSize=40;horizontalStack=0;resizeParent=1;resizeParentMax=0;resizeLast=0;collapsible=1;marginBottom=0;strokeColor=#000000;strokeWidth=1;fillColor=none;fontColor=#000000;" vertex="1" parent="1">
          <mxGeometry x="680" y="446.0000000000001" width="160" height="100" as="geometry" />
        </mxCell>
        <mxCell id="jRbRf-JTC5As9jBnpH00-26" value="+ field: type" style="text;strokeColor=none;fillColor=none;align=left;verticalAlign=top;spacingLeft=4;spacingRight=4;overflow=hidden;rotatable=0;points=[[0,0.5],[1,0.5]];portConstraint=eastwest;" vertex="1" parent="jRbRf-JTC5As9jBnpH00-25">
          <mxGeometry y="40" width="160" height="26" as="geometry" />
        </mxCell>
        <mxCell id="jRbRf-JTC5As9jBnpH00-27" value="" style="line;strokeWidth=1;fillColor=none;align=left;verticalAlign=middle;spacingTop=-1;spacingLeft=3;spacingRight=3;rotatable=0;labelPosition=right;points=[];portConstraint=eastwest;" vertex="1" parent="jRbRf-JTC5As9jBnpH00-25">
          <mxGeometry y="66" width="160" height="8" as="geometry" />
        </mxCell>
        <mxCell id="jRbRf-JTC5As9jBnpH00-28" value="+ method(type): type" style="text;strokeColor=none;fillColor=none;align=left;verticalAlign=top;spacingLeft=4;spacingRight=4;overflow=hidden;rotatable=0;points=[[0,0.5],[1,0.5]];portConstraint=eastwest;" vertex="1" parent="jRbRf-JTC5As9jBnpH00-25">
          <mxGeometry y="74" width="160" height="26" as="geometry" />
        </mxCell>
        <mxCell id="jRbRf-JTC5As9jBnpH00-29" value="«struct»&#xa;Model" style="swimlane;fontStyle=1;align=center;verticalAlign=top;childLayout=stackLayout;horizontal=1;startSize=40;horizontalStack=0;resizeParent=1;resizeParentMax=0;resizeLast=0;collapsible=1;marginBottom=0;strokeColor=#000000;strokeWidth=1;fillColor=none;fontColor=#000000;" vertex="1" parent="1">
          <mxGeometry x="320" y="360.0000000000001" width="160" height="100" as="geometry" />
        </mxCell>
        <mxCell id="jRbRf-JTC5As9jBnpH00-30" value="+ article_data: [ArticleData]" style="text;strokeColor=none;fillColor=none;align=left;verticalAlign=top;spacingLeft=4;spacingRight=4;overflow=hidden;rotatable=0;points=[[0,0.5],[1,0.5]];portConstraint=eastwest;" vertex="1" parent="jRbRf-JTC5As9jBnpH00-29">
          <mxGeometry y="40" width="160" height="26" as="geometry" />
        </mxCell>
        <mxCell id="jRbRf-JTC5As9jBnpH00-105" value="+ feed_data: [NewsFeedProvider]" style="text;strokeColor=none;fillColor=none;align=left;verticalAlign=top;spacingLeft=4;spacingRight=4;overflow=hidden;rotatable=0;points=[[0,0.5],[1,0.5]];portConstraint=eastwest;" vertex="1" parent="jRbRf-JTC5As9jBnpH00-29">
          <mxGeometry y="66" width="160" height="26" as="geometry" />
        </mxCell>
        <mxCell id="jRbRf-JTC5As9jBnpH00-31" value="" style="line;strokeWidth=1;fillColor=none;align=left;verticalAlign=middle;spacingTop=-1;spacingLeft=3;spacingRight=3;rotatable=0;labelPosition=right;points=[];portConstraint=eastwest;" vertex="1" parent="jRbRf-JTC5As9jBnpH00-29">
          <mxGeometry y="92" width="160" height="8" as="geometry" />
        </mxCell>
        <mxCell id="jRbRf-JTC5As9jBnpH00-37" value="ListEntryView.swift" style="rounded=1;whiteSpace=wrap;html=1;fillColor=none;dashed=1;strokeWidth=3;labelPosition=center;verticalLabelPosition=top;align=center;verticalAlign=bottom;strokeColor=#3399FF;fontColor=#3399FF;" vertex="1" parent="1">
          <mxGeometry x="620" y="700" width="250" height="180" as="geometry" />
        </mxCell>
        <mxCell id="jRbRf-JTC5As9jBnpH00-38" value="«struct»&#xa;ListEntryView" style="swimlane;fontStyle=1;align=center;verticalAlign=top;childLayout=stackLayout;horizontal=1;startSize=40;horizontalStack=0;resizeParent=1;resizeParentMax=0;resizeLast=0;collapsible=1;marginBottom=0;strokeColor=#000000;strokeWidth=1;fillColor=none;fontColor=#000000;" vertex="1" parent="1">
          <mxGeometry x="670" y="740.0000000000001" width="160" height="100" as="geometry" />
        </mxCell>
        <mxCell id="jRbRf-JTC5As9jBnpH00-39" value="+ field: type" style="text;strokeColor=none;fillColor=none;align=left;verticalAlign=top;spacingLeft=4;spacingRight=4;overflow=hidden;rotatable=0;points=[[0,0.5],[1,0.5]];portConstraint=eastwest;" vertex="1" parent="jRbRf-JTC5As9jBnpH00-38">
          <mxGeometry y="40" width="160" height="26" as="geometry" />
        </mxCell>
        <mxCell id="jRbRf-JTC5As9jBnpH00-40" value="" style="line;strokeWidth=1;fillColor=none;align=left;verticalAlign=middle;spacingTop=-1;spacingLeft=3;spacingRight=3;rotatable=0;labelPosition=right;points=[];portConstraint=eastwest;" vertex="1" parent="jRbRf-JTC5As9jBnpH00-38">
          <mxGeometry y="66" width="160" height="8" as="geometry" />
        </mxCell>
        <mxCell id="jRbRf-JTC5As9jBnpH00-41" value="+ method(type): type" style="text;strokeColor=none;fillColor=none;align=left;verticalAlign=top;spacingLeft=4;spacingRight=4;overflow=hidden;rotatable=0;points=[[0,0.5],[1,0.5]];portConstraint=eastwest;" vertex="1" parent="jRbRf-JTC5As9jBnpH00-38">
          <mxGeometry y="74" width="160" height="26" as="geometry" />
        </mxCell>
        <mxCell id="jRbRf-JTC5As9jBnpH00-42" value="ArticleView.swift" style="rounded=1;whiteSpace=wrap;html=1;fillColor=none;dashed=1;strokeWidth=3;labelPosition=center;verticalLabelPosition=top;align=center;verticalAlign=bottom;strokeColor=#3399FF;fontColor=#3399FF;" vertex="1" parent="1">
          <mxGeometry x="1340" y="510" width="240" height="170" as="geometry" />
        </mxCell>
        <mxCell id="jRbRf-JTC5As9jBnpH00-47" value="ArticleListView.swift" style="rounded=1;whiteSpace=wrap;html=1;fillColor=none;dashed=1;strokeWidth=3;labelPosition=center;verticalLabelPosition=top;align=center;verticalAlign=bottom;strokeColor=#3399FF;fontColor=#3399FF;" vertex="1" parent="1">
          <mxGeometry x="960" y="530" width="250" height="180" as="geometry" />
        </mxCell>
        <mxCell id="jRbRf-JTC5As9jBnpH00-52" value="ContentView.swift" style="rounded=1;whiteSpace=wrap;html=1;fillColor=none;dashed=1;strokeWidth=3;labelPosition=center;verticalLabelPosition=top;align=center;verticalAlign=bottom;strokeColor=#3399FF;fontColor=#3399FF;" vertex="1" parent="1">
          <mxGeometry x="1040" y="230" width="240" height="180" as="geometry" />
        </mxCell>
        <mxCell id="jRbRf-JTC5As9jBnpH00-53" value="«struct»&#xa;ContentView" style="swimlane;fontStyle=1;align=center;verticalAlign=top;childLayout=stackLayout;horizontal=1;startSize=40;horizontalStack=0;resizeParent=1;resizeParentMax=0;resizeLast=0;collapsible=1;marginBottom=0;strokeColor=#000000;strokeWidth=1;fillColor=none;fontColor=#000000;" vertex="1" parent="1">
          <mxGeometry x="1080" y="266.0000000000001" width="160" height="100" as="geometry" />
        </mxCell>
        <mxCell id="jRbRf-JTC5As9jBnpH00-54" value="+ field: type" style="text;strokeColor=none;fillColor=none;align=left;verticalAlign=top;spacingLeft=4;spacingRight=4;overflow=hidden;rotatable=0;points=[[0,0.5],[1,0.5]];portConstraint=eastwest;" vertex="1" parent="jRbRf-JTC5As9jBnpH00-53">
          <mxGeometry y="40" width="160" height="26" as="geometry" />
        </mxCell>
        <mxCell id="jRbRf-JTC5As9jBnpH00-55" value="" style="line;strokeWidth=1;fillColor=none;align=left;verticalAlign=middle;spacingTop=-1;spacingLeft=3;spacingRight=3;rotatable=0;labelPosition=right;points=[];portConstraint=eastwest;" vertex="1" parent="jRbRf-JTC5As9jBnpH00-53">
          <mxGeometry y="66" width="160" height="8" as="geometry" />
        </mxCell>
        <mxCell id="jRbRf-JTC5As9jBnpH00-56" value="+ method(type): type" style="text;strokeColor=none;fillColor=none;align=left;verticalAlign=top;spacingLeft=4;spacingRight=4;overflow=hidden;rotatable=0;points=[[0,0.5],[1,0.5]];portConstraint=eastwest;" vertex="1" parent="jRbRf-JTC5As9jBnpH00-53">
          <mxGeometry y="74" width="160" height="26" as="geometry" />
        </mxCell>
        <mxCell id="jRbRf-JTC5As9jBnpH00-43" value="«struct»&#xa;ArticleView" style="swimlane;fontStyle=1;align=center;verticalAlign=top;childLayout=stackLayout;horizontal=1;startSize=40;horizontalStack=0;resizeParent=1;resizeParentMax=0;resizeLast=0;collapsible=1;marginBottom=0;strokeColor=#000000;strokeWidth=1;fillColor=none;fontColor=#000000;" vertex="1" parent="1">
          <mxGeometry x="1380" y="550.0000000000001" width="160" height="100" as="geometry" />
        </mxCell>
        <mxCell id="jRbRf-JTC5As9jBnpH00-44" value="+ field: type" style="text;strokeColor=none;fillColor=none;align=left;verticalAlign=top;spacingLeft=4;spacingRight=4;overflow=hidden;rotatable=0;points=[[0,0.5],[1,0.5]];portConstraint=eastwest;" vertex="1" parent="jRbRf-JTC5As9jBnpH00-43">
          <mxGeometry y="40" width="160" height="26" as="geometry" />
        </mxCell>
        <mxCell id="jRbRf-JTC5As9jBnpH00-45" value="" style="line;strokeWidth=1;fillColor=none;align=left;verticalAlign=middle;spacingTop=-1;spacingLeft=3;spacingRight=3;rotatable=0;labelPosition=right;points=[];portConstraint=eastwest;" vertex="1" parent="jRbRf-JTC5As9jBnpH00-43">
          <mxGeometry y="66" width="160" height="8" as="geometry" />
        </mxCell>
        <mxCell id="jRbRf-JTC5As9jBnpH00-46" value="+ method(type): type" style="text;strokeColor=none;fillColor=none;align=left;verticalAlign=top;spacingLeft=4;spacingRight=4;overflow=hidden;rotatable=0;points=[[0,0.5],[1,0.5]];portConstraint=eastwest;" vertex="1" parent="jRbRf-JTC5As9jBnpH00-43">
          <mxGeometry y="74" width="160" height="26" as="geometry" />
        </mxCell>
        <mxCell id="jRbRf-JTC5As9jBnpH00-48" value="«struct»&#xa;ArticleListView" style="swimlane;fontStyle=1;align=center;verticalAlign=top;childLayout=stackLayout;horizontal=1;startSize=40;horizontalStack=0;resizeParent=1;resizeParentMax=0;resizeLast=0;collapsible=1;marginBottom=0;strokeColor=#000000;strokeWidth=1;fillColor=none;fontColor=#000000;" vertex="1" parent="1">
          <mxGeometry x="1010" y="570.0000000000001" width="160" height="100" as="geometry" />
        </mxCell>
        <mxCell id="jRbRf-JTC5As9jBnpH00-49" value="+ field: type" style="text;strokeColor=none;fillColor=none;align=left;verticalAlign=top;spacingLeft=4;spacingRight=4;overflow=hidden;rotatable=0;points=[[0,0.5],[1,0.5]];portConstraint=eastwest;" vertex="1" parent="jRbRf-JTC5As9jBnpH00-48">
          <mxGeometry y="40" width="160" height="26" as="geometry" />
        </mxCell>
        <mxCell id="jRbRf-JTC5As9jBnpH00-50" value="" style="line;strokeWidth=1;fillColor=none;align=left;verticalAlign=middle;spacingTop=-1;spacingLeft=3;spacingRight=3;rotatable=0;labelPosition=right;points=[];portConstraint=eastwest;" vertex="1" parent="jRbRf-JTC5As9jBnpH00-48">
          <mxGeometry y="66" width="160" height="8" as="geometry" />
        </mxCell>
        <mxCell id="jRbRf-JTC5As9jBnpH00-51" value="+ method(type): type" style="text;strokeColor=none;fillColor=none;align=left;verticalAlign=top;spacingLeft=4;spacingRight=4;overflow=hidden;rotatable=0;points=[[0,0.5],[1,0.5]];portConstraint=eastwest;" vertex="1" parent="jRbRf-JTC5As9jBnpH00-48">
          <mxGeometry y="74" width="160" height="26" as="geometry" />
        </mxCell>
        <mxCell id="jRbRf-JTC5As9jBnpH00-33" value="«struct»&#xa;ArticleData" style="swimlane;fontStyle=1;align=center;verticalAlign=top;childLayout=stackLayout;horizontal=1;startSize=40;horizontalStack=0;resizeParent=1;resizeParentMax=0;resizeLast=0;collapsible=1;marginBottom=0;strokeColor=#000000;strokeWidth=1;fillColor=none;fontColor=#000000;" vertex="1" parent="1">
          <mxGeometry x="-80" y="210.0000000000001" width="160" height="282" as="geometry" />
        </mxCell>
        <mxCell id="jRbRf-JTC5As9jBnpH00-34" value="+ id: UUID" style="text;strokeColor=none;fillColor=none;align=left;verticalAlign=top;spacingLeft=4;spacingRight=4;overflow=hidden;rotatable=0;points=[[0,0.5],[1,0.5]];portConstraint=eastwest;" vertex="1" parent="jRbRf-JTC5As9jBnpH00-33">
          <mxGeometry y="40" width="160" height="26" as="geometry" />
        </mxCell>
        <mxCell id="jRbRf-JTC5As9jBnpH00-57" value="+ article_id: String" style="text;strokeColor=none;fillColor=none;align=left;verticalAlign=top;spacingLeft=4;spacingRight=4;overflow=hidden;rotatable=0;points=[[0,0.5],[1,0.5]];portConstraint=eastwest;" vertex="1" parent="jRbRf-JTC5As9jBnpH00-33">
          <mxGeometry y="66" width="160" height="26" as="geometry" />
        </mxCell>
        <mxCell id="jRbRf-JTC5As9jBnpH00-58" value="+ title: String" style="text;strokeColor=none;fillColor=none;align=left;verticalAlign=top;spacingLeft=4;spacingRight=4;overflow=hidden;rotatable=0;points=[[0,0.5],[1,0.5]];portConstraint=eastwest;" vertex="1" parent="jRbRf-JTC5As9jBnpH00-33">
          <mxGeometry y="92" width="160" height="26" as="geometry" />
        </mxCell>
        <mxCell id="jRbRf-JTC5As9jBnpH00-59" value="+ description: String" style="text;strokeColor=none;fillColor=none;align=left;verticalAlign=top;spacingLeft=4;spacingRight=4;overflow=hidden;rotatable=0;points=[[0,0.5],[1,0.5]];portConstraint=eastwest;" vertex="1" parent="jRbRf-JTC5As9jBnpH00-33">
          <mxGeometry y="118" width="160" height="26" as="geometry" />
        </mxCell>
        <mxCell id="jRbRf-JTC5As9jBnpH00-62" value="+ pub_date: Date" style="text;strokeColor=none;fillColor=none;align=left;verticalAlign=top;spacingLeft=4;spacingRight=4;overflow=hidden;rotatable=0;points=[[0,0.5],[1,0.5]];portConstraint=eastwest;" vertex="1" parent="jRbRf-JTC5As9jBnpH00-33">
          <mxGeometry y="144" width="160" height="26" as="geometry" />
        </mxCell>
        <mxCell id="jRbRf-JTC5As9jBnpH00-61" value="+ src_feed: UUID" style="text;strokeColor=none;fillColor=none;align=left;verticalAlign=top;spacingLeft=4;spacingRight=4;overflow=hidden;rotatable=0;points=[[0,0.5],[1,0.5]];portConstraint=eastwest;" vertex="1" parent="jRbRf-JTC5As9jBnpH00-33">
          <mxGeometry y="170" width="160" height="26" as="geometry" />
        </mxCell>
        <mxCell id="jRbRf-JTC5As9jBnpH00-60" value="+ link: String" style="text;strokeColor=none;fillColor=none;align=left;verticalAlign=top;spacingLeft=4;spacingRight=4;overflow=hidden;rotatable=0;points=[[0,0.5],[1,0.5]];portConstraint=eastwest;" vertex="1" parent="jRbRf-JTC5As9jBnpH00-33">
          <mxGeometry y="196" width="160" height="26" as="geometry" />
        </mxCell>
        <mxCell id="jRbRf-JTC5As9jBnpH00-63" value="+ author: String?" style="text;strokeColor=none;fillColor=none;align=left;verticalAlign=top;spacingLeft=4;spacingRight=4;overflow=hidden;rotatable=0;points=[[0,0.5],[1,0.5]];portConstraint=eastwest;" vertex="1" parent="jRbRf-JTC5As9jBnpH00-33">
          <mxGeometry y="222" width="160" height="26" as="geometry" />
        </mxCell>
        <mxCell id="jRbRf-JTC5As9jBnpH00-64" value="+ image: ArticleImage?" style="text;strokeColor=none;fillColor=none;align=left;verticalAlign=top;spacingLeft=4;spacingRight=4;overflow=hidden;rotatable=0;points=[[0,0.5],[1,0.5]];portConstraint=eastwest;" vertex="1" parent="jRbRf-JTC5As9jBnpH00-33">
          <mxGeometry y="248" width="160" height="26" as="geometry" />
        </mxCell>
        <mxCell id="jRbRf-JTC5As9jBnpH00-35" value="" style="line;strokeWidth=1;fillColor=none;align=left;verticalAlign=middle;spacingTop=-1;spacingLeft=3;spacingRight=3;rotatable=0;labelPosition=right;points=[];portConstraint=eastwest;" vertex="1" parent="jRbRf-JTC5As9jBnpH00-33">
          <mxGeometry y="274" width="160" height="8" as="geometry" />
        </mxCell>
        <mxCell id="jRbRf-JTC5As9jBnpH00-66" style="edgeStyle=orthogonalEdgeStyle;rounded=0;orthogonalLoop=1;jettySize=auto;html=1;fontColor=#000000;dashed=1;endArrow=open;endFill=0;" edge="1" parent="1" source="jRbRf-JTC5As9jBnpH00-62" target="jRbRf-JTC5As9jBnpH00-29">
          <mxGeometry relative="1" as="geometry" />
        </mxCell>
        <mxCell id="jRbRf-JTC5As9jBnpH00-72" style="edgeStyle=orthogonalEdgeStyle;rounded=0;orthogonalLoop=1;jettySize=auto;html=1;dashed=1;fontColor=#000000;endArrow=open;endFill=0;" edge="1" parent="1" source="jRbRf-JTC5As9jBnpH00-67" target="jRbRf-JTC5As9jBnpH00-33">
          <mxGeometry relative="1" as="geometry" />
        </mxCell>
        <mxCell id="jRbRf-JTC5As9jBnpH00-67" value="«struct»&#xa;ArticleImage" style="swimlane;fontStyle=1;align=center;verticalAlign=top;childLayout=stackLayout;horizontal=1;startSize=40;horizontalStack=0;resizeParent=1;resizeParentMax=0;resizeLast=0;collapsible=1;marginBottom=0;strokeColor=#000000;strokeWidth=1;fillColor=none;fontColor=#000000;" vertex="1" parent="1">
          <mxGeometry x="-80" y="570.0000000000001" width="160" height="100" as="geometry" />
        </mxCell>
        <mxCell id="jRbRf-JTC5As9jBnpH00-68" value="+ url: String" style="text;strokeColor=none;fillColor=none;align=left;verticalAlign=top;spacingLeft=4;spacingRight=4;overflow=hidden;rotatable=0;points=[[0,0.5],[1,0.5]];portConstraint=eastwest;" vertex="1" parent="jRbRf-JTC5As9jBnpH00-67">
          <mxGeometry y="40" width="160" height="26" as="geometry" />
        </mxCell>
        <mxCell id="jRbRf-JTC5As9jBnpH00-71" value="+ title: String?" style="text;strokeColor=none;fillColor=none;align=left;verticalAlign=top;spacingLeft=4;spacingRight=4;overflow=hidden;rotatable=0;points=[[0,0.5],[1,0.5]];portConstraint=eastwest;" vertex="1" parent="jRbRf-JTC5As9jBnpH00-67">
          <mxGeometry y="66" width="160" height="26" as="geometry" />
        </mxCell>
        <mxCell id="jRbRf-JTC5As9jBnpH00-69" value="" style="line;strokeWidth=1;fillColor=none;align=left;verticalAlign=middle;spacingTop=-1;spacingLeft=3;spacingRight=3;rotatable=0;labelPosition=right;points=[];portConstraint=eastwest;" vertex="1" parent="jRbRf-JTC5As9jBnpH00-67">
          <mxGeometry y="92" width="160" height="8" as="geometry" />
        </mxCell>
        <mxCell id="jRbRf-JTC5As9jBnpH00-73" value="FeedDataStructures.swift" style="rounded=1;whiteSpace=wrap;html=1;fillColor=none;dashed=1;strokeWidth=3;labelPosition=center;verticalLabelPosition=top;align=center;verticalAlign=bottom;strokeColor=#3399FF;fontColor=#3399FF;" vertex="1" parent="1">
          <mxGeometry x="-20" y="810" width="510" height="612" as="geometry" />
        </mxCell>
        <mxCell id="jRbRf-JTC5As9jBnpH00-102" style="edgeStyle=orthogonalEdgeStyle;rounded=0;orthogonalLoop=1;jettySize=auto;html=1;dashed=1;endArrow=open;endFill=0;fontColor=#000000;" edge="1" parent="1" source="jRbRf-JTC5As9jBnpH00-92" target="jRbRf-JTC5As9jBnpH00-74">
          <mxGeometry relative="1" as="geometry" />
        </mxCell>
        <mxCell id="jRbRf-JTC5As9jBnpH00-103" style="edgeStyle=orthogonalEdgeStyle;rounded=0;orthogonalLoop=1;jettySize=auto;html=1;dashed=1;endArrow=open;endFill=0;fontColor=#000000;" edge="1" parent="1" source="jRbRf-JTC5As9jBnpH00-83" target="jRbRf-JTC5As9jBnpH00-74">
          <mxGeometry relative="1" as="geometry" />
        </mxCell>
        <mxCell id="jRbRf-JTC5As9jBnpH00-101" style="edgeStyle=orthogonalEdgeStyle;rounded=0;orthogonalLoop=1;jettySize=auto;html=1;dashed=1;endArrow=open;endFill=0;fontColor=#000000;" edge="1" parent="1" source="jRbRf-JTC5As9jBnpH00-98" target="jRbRf-JTC5As9jBnpH00-83">
          <mxGeometry relative="1" as="geometry" />
        </mxCell>
        <mxCell id="jRbRf-JTC5As9jBnpH00-104" style="edgeStyle=orthogonalEdgeStyle;rounded=0;orthogonalLoop=1;jettySize=auto;html=1;dashed=1;endArrow=open;endFill=0;fontColor=#000000;" edge="1" parent="1" source="jRbRf-JTC5As9jBnpH00-74" target="jRbRf-JTC5As9jBnpH00-29">
          <mxGeometry relative="1" as="geometry" />
        </mxCell>
        <mxCell id="jRbRf-JTC5As9jBnpH00-74" value="«struct»&#xa;NewsFeedProvider" style="swimlane;fontStyle=1;align=center;verticalAlign=top;childLayout=stackLayout;horizontal=1;startSize=40;horizontalStack=0;resizeParent=1;resizeParentMax=0;resizeLast=0;collapsible=1;marginBottom=0;strokeColor=#000000;strokeWidth=1;fillColor=none;fontColor=#000000;" vertex="1" parent="1">
          <mxGeometry x="255" y="862.0000000000001" width="160" height="178" as="geometry" />
        </mxCell>
        <mxCell id="jRbRf-JTC5As9jBnpH00-75" value="+ url: String" style="text;strokeColor=none;fillColor=none;align=left;verticalAlign=top;spacingLeft=4;spacingRight=4;overflow=hidden;rotatable=0;points=[[0,0.5],[1,0.5]];portConstraint=eastwest;" vertex="1" parent="jRbRf-JTC5As9jBnpH00-74">
          <mxGeometry y="40" width="160" height="26" as="geometry" />
        </mxCell>
        <mxCell id="jRbRf-JTC5As9jBnpH00-78" value="+ name: String" style="text;strokeColor=none;fillColor=none;align=left;verticalAlign=top;spacingLeft=4;spacingRight=4;overflow=hidden;rotatable=0;points=[[0,0.5],[1,0.5]];portConstraint=eastwest;" vertex="1" parent="jRbRf-JTC5As9jBnpH00-74">
          <mxGeometry y="66" width="160" height="26" as="geometry" />
        </mxCell>
        <mxCell id="jRbRf-JTC5As9jBnpH00-79" value="+ token: String" style="text;strokeColor=none;fillColor=none;align=left;verticalAlign=top;spacingLeft=4;spacingRight=4;overflow=hidden;rotatable=0;points=[[0,0.5],[1,0.5]];portConstraint=eastwest;" vertex="1" parent="jRbRf-JTC5As9jBnpH00-74">
          <mxGeometry y="92" width="160" height="26" as="geometry" />
        </mxCell>
        <mxCell id="jRbRf-JTC5As9jBnpH00-80" value="+ icon: NewsFeedIcon" style="text;strokeColor=none;fillColor=none;align=left;verticalAlign=top;spacingLeft=4;spacingRight=4;overflow=hidden;rotatable=0;points=[[0,0.5],[1,0.5]];portConstraint=eastwest;" vertex="1" parent="jRbRf-JTC5As9jBnpH00-74">
          <mxGeometry y="118" width="160" height="26" as="geometry" />
        </mxCell>
        <mxCell id="jRbRf-JTC5As9jBnpH00-81" value="+ feeds: [NewsFeed]" style="text;strokeColor=none;fillColor=none;align=left;verticalAlign=top;spacingLeft=4;spacingRight=4;overflow=hidden;rotatable=0;points=[[0,0.5],[1,0.5]];portConstraint=eastwest;" vertex="1" parent="jRbRf-JTC5As9jBnpH00-74">
          <mxGeometry y="144" width="160" height="26" as="geometry" />
        </mxCell>
        <mxCell id="jRbRf-JTC5As9jBnpH00-76" value="" style="line;strokeWidth=1;fillColor=none;align=left;verticalAlign=middle;spacingTop=-1;spacingLeft=3;spacingRight=3;rotatable=0;labelPosition=right;points=[];portConstraint=eastwest;" vertex="1" parent="jRbRf-JTC5As9jBnpH00-74">
          <mxGeometry y="170" width="160" height="8" as="geometry" />
        </mxCell>
        <mxCell id="jRbRf-JTC5As9jBnpH00-92" value="«struct»&#xa;NewsFeedICon" style="swimlane;fontStyle=1;align=center;verticalAlign=top;childLayout=stackLayout;horizontal=1;startSize=40;horizontalStack=0;resizeParent=1;resizeParentMax=0;resizeLast=0;collapsible=1;marginBottom=0;strokeColor=#000000;strokeWidth=1;fillColor=none;fontColor=#000000;" vertex="1" parent="1">
          <mxGeometry x="50" y="914.0000000000001" width="160" height="74" as="geometry" />
        </mxCell>
        <mxCell id="jRbRf-JTC5As9jBnpH00-93" value="+ url: String" style="text;strokeColor=none;fillColor=none;align=left;verticalAlign=top;spacingLeft=4;spacingRight=4;overflow=hidden;rotatable=0;points=[[0,0.5],[1,0.5]];portConstraint=eastwest;" vertex="1" parent="jRbRf-JTC5As9jBnpH00-92">
          <mxGeometry y="40" width="160" height="26" as="geometry" />
        </mxCell>
        <mxCell id="jRbRf-JTC5As9jBnpH00-94" value="" style="line;strokeWidth=1;fillColor=none;align=left;verticalAlign=middle;spacingTop=-1;spacingLeft=3;spacingRight=3;rotatable=0;labelPosition=right;points=[];portConstraint=eastwest;" vertex="1" parent="jRbRf-JTC5As9jBnpH00-92">
          <mxGeometry y="66" width="160" height="8" as="geometry" />
        </mxCell>
        <mxCell id="jRbRf-JTC5As9jBnpH00-83" value="«struct»&#xa;NewsFeed" style="swimlane;fontStyle=1;align=center;verticalAlign=top;childLayout=stackLayout;horizontal=1;startSize=40;horizontalStack=0;resizeParent=1;resizeParentMax=0;resizeLast=0;collapsible=1;marginBottom=0;strokeColor=#000000;strokeWidth=1;fillColor=none;fontColor=#000000;" vertex="1" parent="1">
          <mxGeometry x="255" y="1092" width="160" height="178" as="geometry" />
        </mxCell>
        <mxCell id="jRbRf-JTC5As9jBnpH00-84" value="+ url: String" style="text;strokeColor=none;fillColor=none;align=left;verticalAlign=top;spacingLeft=4;spacingRight=4;overflow=hidden;rotatable=0;points=[[0,0.5],[1,0.5]];portConstraint=eastwest;" vertex="1" parent="jRbRf-JTC5As9jBnpH00-83">
          <mxGeometry y="40" width="160" height="26" as="geometry" />
        </mxCell>
        <mxCell id="jRbRf-JTC5As9jBnpH00-87" value="+ name: String" style="text;strokeColor=none;fillColor=none;align=left;verticalAlign=top;spacingLeft=4;spacingRight=4;overflow=hidden;rotatable=0;points=[[0,0.5],[1,0.5]];portConstraint=eastwest;" vertex="1" parent="jRbRf-JTC5As9jBnpH00-83">
          <mxGeometry y="66" width="160" height="26" as="geometry" />
        </mxCell>
        <mxCell id="jRbRf-JTC5As9jBnpH00-89" value="+ show_in_main: Bool" style="text;strokeColor=none;fillColor=none;align=left;verticalAlign=top;spacingLeft=4;spacingRight=4;overflow=hidden;rotatable=0;points=[[0,0.5],[1,0.5]];portConstraint=eastwest;" vertex="1" parent="jRbRf-JTC5As9jBnpH00-83">
          <mxGeometry y="92" width="160" height="26" as="geometry" />
        </mxCell>
        <mxCell id="jRbRf-JTC5As9jBnpH00-88" value="+ image: FeedTitleImage?" style="text;strokeColor=none;fillColor=none;align=left;verticalAlign=top;spacingLeft=4;spacingRight=4;overflow=hidden;rotatable=0;points=[[0,0.5],[1,0.5]];portConstraint=eastwest;" vertex="1" parent="jRbRf-JTC5As9jBnpH00-83">
          <mxGeometry y="118" width="160" height="26" as="geometry" />
        </mxCell>
        <mxCell id="jRbRf-JTC5As9jBnpH00-90" value="+ use_filters: Bool" style="text;strokeColor=none;fillColor=none;align=left;verticalAlign=top;spacingLeft=4;spacingRight=4;overflow=hidden;rotatable=0;points=[[0,0.5],[1,0.5]];portConstraint=eastwest;" vertex="1" parent="jRbRf-JTC5As9jBnpH00-83">
          <mxGeometry y="144" width="160" height="26" as="geometry" />
        </mxCell>
        <mxCell id="jRbRf-JTC5As9jBnpH00-85" value="" style="line;strokeWidth=1;fillColor=none;align=left;verticalAlign=middle;spacingTop=-1;spacingLeft=3;spacingRight=3;rotatable=0;labelPosition=right;points=[];portConstraint=eastwest;" vertex="1" parent="jRbRf-JTC5As9jBnpH00-83">
          <mxGeometry y="170" width="160" height="8" as="geometry" />
        </mxCell>
        <mxCell id="jRbRf-JTC5As9jBnpH00-97" value="«struct»&#xa;FeedTitleImage" style="swimlane;fontStyle=1;align=center;verticalAlign=top;childLayout=stackLayout;horizontal=1;startSize=40;horizontalStack=0;resizeParent=1;resizeParentMax=0;resizeLast=0;collapsible=1;marginBottom=0;strokeColor=#000000;strokeWidth=1;fillColor=none;fontColor=#000000;" vertex="1" parent="1">
          <mxGeometry x="50" y="1118" width="160" height="100" as="geometry" />
        </mxCell>
        <mxCell id="jRbRf-JTC5As9jBnpH00-98" value="+ url: String" style="text;strokeColor=none;fillColor=none;align=left;verticalAlign=top;spacingLeft=4;spacingRight=4;overflow=hidden;rotatable=0;points=[[0,0.5],[1,0.5]];portConstraint=eastwest;" vertex="1" parent="jRbRf-JTC5As9jBnpH00-97">
          <mxGeometry y="40" width="160" height="26" as="geometry" />
        </mxCell>
        <mxCell id="jRbRf-JTC5As9jBnpH00-100" value="+ title: String?" style="text;strokeColor=none;fillColor=none;align=left;verticalAlign=top;spacingLeft=4;spacingRight=4;overflow=hidden;rotatable=0;points=[[0,0.5],[1,0.5]];portConstraint=eastwest;" vertex="1" parent="jRbRf-JTC5As9jBnpH00-97">
          <mxGeometry y="66" width="160" height="26" as="geometry" />
        </mxCell>
        <mxCell id="jRbRf-JTC5As9jBnpH00-99" value="" style="line;strokeWidth=1;fillColor=none;align=left;verticalAlign=middle;spacingTop=-1;spacingLeft=3;spacingRight=3;rotatable=0;labelPosition=right;points=[];portConstraint=eastwest;" vertex="1" parent="jRbRf-JTC5As9jBnpH00-97">
          <mxGeometry y="92" width="160" height="8" as="geometry" />
        </mxCell>
      </root>
    </mxGraphModel>
  </diagram>
</mxfile>
